<svg width="16" height="16" viewBox="0 0 16 16" fill="none" xmlns="http://www.w3.org/2000/svg">
<path d="M14.5 8.00028V13.0003C14.5 13.6633 14.2366 14.2992 13.7678 14.7681C13.2989 15.2369 12.663 15.5003 12 15.5003H8.5C8.36739 15.5003 8.24022 15.4476 8.14645 15.3538C8.05268 15.2601 8 15.1329 8 15.0003C8 14.8677 8.05268 14.7405 8.14645 14.6467C8.24022 14.553 8.36739 14.5003 8.5 14.5003H12C12.3978 14.5003 12.7794 14.3422 13.0607 14.0609C13.342 13.7796 13.5 13.3981 13.5 13.0003H12C11.6022 13.0003 11.2206 12.8422 10.9393 12.5609C10.658 12.2796 10.5 11.8981 10.5 11.5003V9.00028C10.5 8.60246 10.658 8.22093 10.9393 7.93962C11.2206 7.65832 11.6022 7.50028 12 7.50028H13.4781C13.3835 6.46087 12.9951 5.46983 12.3582 4.64294C11.7214 3.81604 10.8624 3.18741 9.88164 2.83049C8.90085 2.47357 7.83875 2.40308 6.8194 2.62726C5.80005 2.85145 4.86553 3.36104 4.125 4.09653C3.20416 5.00523 2.6362 6.21158 2.5225 7.50028H4C4.39783 7.50028 4.77936 7.65832 5.06066 7.93962C5.34197 8.22093 5.5 8.60246 5.5 9.00028V11.5003C5.5 11.8981 5.34197 12.2796 5.06066 12.5609C4.77936 12.8422 4.39783 13.0003 4 13.0003H3C2.60218 13.0003 2.22064 12.8422 1.93934 12.5609C1.65804 12.2796 1.5 11.8981 1.5 11.5003V8.00028C1.5014 6.71272 1.88476 5.45451 2.60156 4.38492C3.31836 3.31534 4.33638 2.48245 5.52674 1.99169C6.71711 1.50093 8.02632 1.37435 9.28866 1.62799C10.551 1.88163 11.7097 2.50407 12.6181 3.41653C13.2179 4.01922 13.6929 4.73434 14.0158 5.5209C14.3387 6.30746 14.5033 7.15002 14.5 8.00028Z" fill="#2B3990"/>
</svg>
