<svg width="16" height="16" viewBox="0 0 16 16" fill="none" xmlns="http://www.w3.org/2000/svg">
<path d="M14.4925 10.9424C14.3811 11.7893 13.9651 12.5666 13.3224 13.1293C12.6797 13.6919 11.8542 14.0014 11 13.9999C6.03751 13.9999 2.00001 9.96237 2.00001 4.99987C1.99847 4.14568 2.30794 3.32014 2.87059 2.67743C3.43324 2.03473 4.21061 1.61882 5.05751 1.50737C5.27166 1.48122 5.48854 1.52504 5.67575 1.63227C5.86296 1.73951 6.01047 1.90441 6.09626 2.10237L7.41626 5.04925V5.05675C7.48194 5.20828 7.50906 5.37372 7.49521 5.5383C7.48136 5.70287 7.42696 5.86145 7.33688 5.99987C7.32563 6.01675 7.31376 6.03237 7.30126 6.048L6.00001 7.5905C6.46813 8.54175 7.46313 9.528 8.42688 9.99737L9.94813 8.703C9.96307 8.69044 9.97872 8.67875 9.99501 8.668C10.1333 8.57575 10.2924 8.51944 10.458 8.50416C10.6235 8.48888 10.7903 8.51512 10.9431 8.5805L10.9513 8.58425L13.8956 9.90362C14.0939 9.98911 14.2592 10.1365 14.3668 10.3237C14.4744 10.511 14.5185 10.728 14.4925 10.9424Z" fill="#2B3990"/>
</svg>
