<svg width="20" height="20" viewBox="0 0 20 20" fill="none" xmlns="http://www.w3.org/2000/svg">
<path d="M11.5945 2.88278C11.6588 2.64266 11.8158 2.4379 12.031 2.31352C12.2462 2.18914 12.5021 2.15532 12.7422 2.2195C13.9542 2.53525 15.0601 3.1686 15.9457 4.05424C16.8314 4.93988 17.4647 6.04575 17.7805 7.25778C17.8152 7.3776 17.8257 7.50314 17.8113 7.62706C17.7968 7.75097 17.7578 7.87076 17.6965 7.97941C17.6352 8.08806 17.5529 8.18339 17.4543 8.2598C17.3556 8.33621 17.2428 8.39217 17.1223 8.42441C17.0018 8.45664 16.876 8.4645 16.7524 8.44752C16.6288 8.43054 16.5099 8.38906 16.4025 8.32553C16.2952 8.26199 16.2016 8.17766 16.1272 8.07749C16.0529 7.97731 15.9993 7.86331 15.9695 7.74215C15.7367 6.84935 15.27 6.03477 14.6176 5.38235C13.9652 4.72993 13.1506 4.26326 12.2578 4.03043C12.0177 3.96615 11.8129 3.80915 11.6886 3.59393C11.5642 3.37872 11.5304 3.12292 11.5945 2.88278ZM18.4258 13.7172C18.2768 14.8512 17.7201 15.8923 16.8597 16.646C15.9992 17.3996 14.8938 17.8142 13.75 17.8125C7.37422 17.8125 2.18751 12.6257 2.18751 6.24997C2.18573 5.10614 2.60039 4.00077 3.35402 3.14032C4.10765 2.27987 5.14873 1.72316 6.28282 1.57418C6.61697 1.53358 6.95532 1.6017 7.24772 1.76845C7.54013 1.93519 7.77105 2.1917 7.90626 2.49997L9.55547 6.182C9.55723 6.18682 9.55932 6.19152 9.56172 6.19606C9.66308 6.43295 9.70428 6.69123 9.68165 6.94789C9.65902 7.20456 9.57327 7.45165 9.43204 7.66715C9.41194 7.69855 9.38975 7.72857 9.36563 7.757L7.87657 9.53122C8.42813 10.5343 9.47813 11.575 10.493 12.1257L12.2359 10.6414C12.2639 10.618 12.2931 10.596 12.3234 10.5757C12.5397 10.4306 12.7889 10.3421 13.0483 10.3184C13.3076 10.2946 13.5688 10.3364 13.8078 10.4398L13.8219 10.4461L17.5 12.0937C17.8082 12.229 18.0646 12.46 18.2314 12.7523C18.3981 13.0447 18.4663 13.383 18.4258 13.7172ZM16.5266 13.7125L13.2453 12.2429L11.493 13.7328C11.4654 13.7566 11.4365 13.7788 11.4063 13.7992C11.181 13.9485 10.9209 14.0369 10.6512 14.0557C10.3816 14.0744 10.1117 14.0229 9.86797 13.9062C8.3461 13.1718 6.82969 11.6656 6.09376 10.1562C5.97672 9.91354 5.92443 9.64473 5.94195 9.37588C5.95947 9.10702 6.04622 8.84727 6.19376 8.62184C6.21412 8.59043 6.23657 8.56041 6.26094 8.532L7.75782 6.757L6.28751 3.47575C5.65579 3.61496 5.09068 3.96601 4.68596 4.47063C4.28124 4.97525 4.06125 5.6031 4.06251 6.24997C4.06561 8.8183 5.08725 11.2805 6.90333 13.0966C8.71942 14.9127 11.1817 15.9344 13.75 15.9375C14.3973 15.9393 15.0257 15.7195 15.5308 15.3147C16.0359 14.91 16.3873 14.3446 16.5266 13.7125ZM11.3773 6.98981C11.7607 7.11065 12.1093 7.32216 12.3936 7.6064C12.6778 7.89064 12.8893 8.23924 13.0102 8.62262C13.07 8.81284 13.1889 8.97902 13.3496 9.09704C13.5103 9.21506 13.7045 9.27875 13.9039 9.27887C13.9995 9.27875 14.0946 9.26427 14.1859 9.2359C14.4222 9.16116 14.6192 8.99593 14.734 8.77634C14.8488 8.55675 14.8719 8.30065 14.7984 8.06403C14.587 7.39276 14.2168 6.7824 13.7191 6.28475C13.2215 5.78711 12.6111 5.41686 11.9398 5.20543C11.8217 5.16579 11.6969 5.1501 11.5726 5.15928C11.4483 5.16845 11.3271 5.20231 11.2161 5.25887C11.105 5.31544 11.0064 5.39357 10.9259 5.4887C10.8454 5.58383 10.7847 5.69406 10.7473 5.81293C10.7099 5.9318 10.6966 6.05693 10.7081 6.18101C10.7197 6.30509 10.7558 6.42562 10.8145 6.53557C10.8731 6.64551 10.9531 6.74265 11.0498 6.82132C11.1464 6.89998 11.2578 6.95859 11.3773 6.99371V6.98981Z" fill="white"/>
</svg>
